<?xml version="1.0" standalone="no"?>
<!DOCTYPE svg PUBLIC "-//W3C//DTD SVG 20010904//EN"
 "http://www.w3.org/TR/2001/REC-SVG-20010904/DTD/svg10.dtd">
<svg version="1.0" xmlns="http://www.w3.org/2000/svg"
 width="512.000000pt" height="512.000000pt" viewBox="0 0 512.000000 512.000000"
 preserveAspectRatio="xMidYMid meet">
<g transform="translate(0.000000,512.000000) scale(0.100000,-0.100000)"
fill="#069898" stroke="none">
<path d="M3435 4785 c-131 -46 -309 -133 -413 -202 -212 -140 -390 -376 -481
-636 -34 -97 -71 -265 -71 -321 0 -20 -2 -36 -5 -36 -2 0 -35 22 -72 49 -189
138 -412 200 -673 188 -523 -24 -885 -363 -981 -917 -11 -63 -22 -180 -25
-260 -18 -455 151 -1031 418 -1428 327 -486 775 -650 1361 -497 61 16 98 20
113 15 12 -5 78 -21 146 -36 150 -32 363 -43 489 -24 385 56 702 317 926 764
252 503 346 1056 253 1502 -105 505 -453 838 -924 882 l-75 7 31 45 c41 60
109 205 147 313 47 134 93 366 95 475 l1 94 -33 29 c-45 40 -98 39 -227 -6z
m-30 -307 c-15 -71 -67 -212 -111 -300 -103 -207 -192 -313 -432 -517 l-133
-113 6 49 c54 384 264 697 585 872 41 22 79 41 83 41 5 0 6 -15 2 -32z m-1417
-939 c194 -49 320 -144 422 -318 57 -99 100 -131 173 -131 55 0 98 32 172 131
170 225 388 340 645 340 412 0 689 -286 751 -776 15 -123 7 -399 -16 -525 -86
-474 -327 -946 -581 -1139 -136 -102 -275 -154 -451 -167 -135 -10 -138 -6
-54 72 201 186 321 458 321 729 0 229 -69 397 -230 557 -75 74 -102 93 -191
137 -151 73 -206 85 -379 86 -174 0 -229 -12 -380 -86 -88 -44 -117 -65 -185
-133 -92 -92 -151 -185 -192 -301 -26 -75 -28 -90 -28 -250 0 -148 3 -180 23
-250 62 -214 194 -417 341 -523 56 -41 42 -47 -87 -38 -167 12 -299 55 -419
137 -362 248 -668 999 -640 1566 30 591 342 934 822 906 50 -3 123 -14 163
-24z m718 -1279 c99 -26 170 -68 244 -147 68 -72 106 -147 127 -252 47 -226
-86 -544 -295 -704 -74 -57 -175 -117 -197 -117 -31 0 -170 79 -237 135 -82
68 -157 165 -208 270 -121 248 -100 496 56 665 137 148 314 200 510 150z"/>
</g>
</svg>
