<svg xmlns="http://www.w3.org/2000/svg" width="512" height="512" viewBox="0 0 512 512" role="img" aria-label="NutriPlan apple icon">
  <g fill="none" stroke="#009A9E" stroke-width="30" stroke-linecap="round" stroke-linejoin="round">
    <path d="M256 187 C266 112 315 55 357 44 C350 101 309 154 256 187 Z"/>
    <path d="M256 187 C236 149 196 139 157 149 C96 165 72 214 84 296 C99 399 181 439 256 397 C331 439 413 399 428 296 C440 214 416 165 355 149 C316 139 276 149 256 187 Z"/>
    <path d="M256 385 C214 359 202 303 221 274 C237 249 275 249 291 274 C310 303 298 359 256 385 Z"/>
  </g>
</svg>
