<?xml version="1.0" standalone="no"?>
<!DOCTYPE svg PUBLIC "-//W3C//DTD SVG 20010904//EN"
 "http://www.w3.org/TR/2001/REC-SVG-20010904/DTD/svg10.dtd">
<svg version="1.0" xmlns="http://www.w3.org/2000/svg"
 width="192.000000pt" height="192.000000pt" viewBox="0 0 192.000000 192.000000"
 preserveAspectRatio="xMidYMid meet">
<g transform="translate(0.000000,192.000000) scale(0.100000,-0.100000)"
fill="#009a9e" stroke="none">
<path d="M1273 1786 c-183 -68 -301 -198 -335 -371 -7 -33 -13 -61 -14 -63 -1
-2 -33 14 -70 35 -69 38 -70 38 -184 38 -103 0 -121 -3 -171 -26 -160 -75
-237 -233 -226 -464 6 -130 33 -236 88 -353 76 -163 163 -258 282 -305 60 -24
203 -28 274 -8 35 10 58 9 130 -5 101 -19 177 -13 262 18 76 28 192 145 243
243 189 368 143 748 -106 870 -29 14 -76 28 -104 32 -29 3 -52 9 -52 13 0 4
13 33 30 66 50 100 77 256 50 289 -16 19 -22 19 -97 -9z m1 -123 c-23 -101
-106 -219 -211 -301 l-43 -34 6 34 c23 129 90 234 193 300 56 35 63 35 55 1z
m-513 -339 c53 -16 84 -41 160 -133 31 -36 62 -40 87 -9 57 71 90 100 136 123
153 75 310 18 382 -138 28 -59 29 -69 29 -197 -1 -157 -14 -218 -79 -355 -76
-161 -188 -255 -304 -255 l-55 0 43 46 c59 64 92 142 98 230 6 97 -15 160 -77
223 -153 157 -430 100 -497 -102 -38 -114 6 -280 95 -360 45 -41 39 -46 -35
-36 -119 16 -204 90 -279 244 -113 231 -120 489 -18 624 75 99 186 133 314 95z
m256 -475 c84 -22 143 -102 143 -196 0 -84 -77 -206 -155 -248 l-37 -19 -45
24 c-89 47 -162 179 -150 270 11 83 55 137 136 166 45 16 52 17 108 3z"/>
</g>
</svg>
